<mxfile host="app.diagrams.net" modified="2022-07-14T08:15:09.718Z" agent="5.0 (X11; Linux x86_64) AppleWebKit/537.36 (KHTML, like Gecko) Chrome/102.0.5005.136 Safari/537.36" etag="CPXkzjrUNBgN1JRYMvkx" version="20.1.1" type="github">
  <diagram id="UcM7eqIpNIDmAtIYZI3y" name="Page-1">
    <mxGraphModel dx="2539" dy="2077" grid="1" gridSize="10" guides="1" tooltips="1" connect="1" arrows="1" fold="1" page="1" pageScale="1" pageWidth="850" pageHeight="1100" math="0" shadow="0">
      <root>
        <mxCell id="0" />
        <mxCell id="1" parent="0" />
        <mxCell id="20m8SUaOAVCEQE0NKZoS-21" style="edgeStyle=orthogonalEdgeStyle;rounded=0;orthogonalLoop=1;jettySize=auto;html=1;exitX=0;exitY=0.5;exitDx=0;exitDy=0;entryX=1;entryY=0.5;entryDx=0;entryDy=0;entryPerimeter=0;" edge="1" parent="1" source="20m8SUaOAVCEQE0NKZoS-1" target="20m8SUaOAVCEQE0NKZoS-6">
          <mxGeometry relative="1" as="geometry" />
        </mxCell>
        <mxCell id="20m8SUaOAVCEQE0NKZoS-22" style="edgeStyle=orthogonalEdgeStyle;rounded=0;orthogonalLoop=1;jettySize=auto;html=1;exitX=0.5;exitY=1;exitDx=0;exitDy=0;entryX=0.25;entryY=0;entryDx=0;entryDy=0;" edge="1" parent="1" source="20m8SUaOAVCEQE0NKZoS-1" target="20m8SUaOAVCEQE0NKZoS-4">
          <mxGeometry relative="1" as="geometry" />
        </mxCell>
        <mxCell id="20m8SUaOAVCEQE0NKZoS-23" style="edgeStyle=orthogonalEdgeStyle;rounded=0;orthogonalLoop=1;jettySize=auto;html=1;exitX=0.25;exitY=1;exitDx=0;exitDy=0;entryX=0.75;entryY=0;entryDx=0;entryDy=0;" edge="1" parent="1" source="20m8SUaOAVCEQE0NKZoS-1" target="20m8SUaOAVCEQE0NKZoS-2">
          <mxGeometry relative="1" as="geometry" />
        </mxCell>
        <mxCell id="20m8SUaOAVCEQE0NKZoS-1" value="QAService" style="whiteSpace=wrap;html=1;aspect=fixed;" vertex="1" parent="1">
          <mxGeometry x="340" y="300" width="80" height="80" as="geometry" />
        </mxCell>
        <mxCell id="20m8SUaOAVCEQE0NKZoS-24" style="edgeStyle=orthogonalEdgeStyle;rounded=0;orthogonalLoop=1;jettySize=auto;html=1;exitX=0.75;exitY=1;exitDx=0;exitDy=0;entryX=0.75;entryY=0;entryDx=0;entryDy=0;" edge="1" parent="1" source="20m8SUaOAVCEQE0NKZoS-2" target="20m8SUaOAVCEQE0NKZoS-3">
          <mxGeometry relative="1" as="geometry" />
        </mxCell>
        <mxCell id="20m8SUaOAVCEQE0NKZoS-25" style="edgeStyle=orthogonalEdgeStyle;rounded=0;orthogonalLoop=1;jettySize=auto;html=1;exitX=0;exitY=0.75;exitDx=0;exitDy=0;entryX=1.039;entryY=0.758;entryDx=0;entryDy=0;entryPerimeter=0;" edge="1" parent="1" source="20m8SUaOAVCEQE0NKZoS-2" target="20m8SUaOAVCEQE0NKZoS-7">
          <mxGeometry relative="1" as="geometry" />
        </mxCell>
        <mxCell id="20m8SUaOAVCEQE0NKZoS-2" value="CurrentSceneService" style="whiteSpace=wrap;html=1;aspect=fixed;" vertex="1" parent="1">
          <mxGeometry x="210" y="470" width="80" height="80" as="geometry" />
        </mxCell>
        <mxCell id="20m8SUaOAVCEQE0NKZoS-26" style="edgeStyle=orthogonalEdgeStyle;rounded=0;orthogonalLoop=1;jettySize=auto;html=1;exitX=0;exitY=0.25;exitDx=0;exitDy=0;entryX=1;entryY=0;entryDx=0;entryDy=15;entryPerimeter=0;" edge="1" parent="1" source="20m8SUaOAVCEQE0NKZoS-3" target="20m8SUaOAVCEQE0NKZoS-8">
          <mxGeometry relative="1" as="geometry" />
        </mxCell>
        <mxCell id="20m8SUaOAVCEQE0NKZoS-3" value="SceneRoutingService" style="whiteSpace=wrap;html=1;aspect=fixed;" vertex="1" parent="1">
          <mxGeometry x="210" y="600" width="80" height="80" as="geometry" />
        </mxCell>
        <mxCell id="20m8SUaOAVCEQE0NKZoS-27" style="edgeStyle=orthogonalEdgeStyle;rounded=0;orthogonalLoop=1;jettySize=auto;html=1;exitX=1;exitY=0.25;exitDx=0;exitDy=0;entryX=0;entryY=0.25;entryDx=0;entryDy=0;" edge="1" parent="1" source="20m8SUaOAVCEQE0NKZoS-4" target="20m8SUaOAVCEQE0NKZoS-5">
          <mxGeometry relative="1" as="geometry" />
        </mxCell>
        <mxCell id="20m8SUaOAVCEQE0NKZoS-4" value="PermissionsService" style="whiteSpace=wrap;html=1;aspect=fixed;" vertex="1" parent="1">
          <mxGeometry x="350" y="470" width="80" height="80" as="geometry" />
        </mxCell>
        <mxCell id="20m8SUaOAVCEQE0NKZoS-28" style="edgeStyle=orthogonalEdgeStyle;rounded=0;orthogonalLoop=1;jettySize=auto;html=1;exitX=1;exitY=0.25;exitDx=0;exitDy=0;entryX=0;entryY=0;entryDx=0;entryDy=27.5;entryPerimeter=0;" edge="1" parent="1" source="20m8SUaOAVCEQE0NKZoS-5" target="20m8SUaOAVCEQE0NKZoS-10">
          <mxGeometry relative="1" as="geometry" />
        </mxCell>
        <mxCell id="20m8SUaOAVCEQE0NKZoS-5" value="StateService" style="whiteSpace=wrap;html=1;aspect=fixed;" vertex="1" parent="1">
          <mxGeometry x="490" y="470" width="80" height="80" as="geometry" />
        </mxCell>
        <mxCell id="20m8SUaOAVCEQE0NKZoS-6" value="QAStore" style="shape=cylinder3;whiteSpace=wrap;html=1;boundedLbl=1;backgroundOutline=1;size=15;" vertex="1" parent="1">
          <mxGeometry x="210" y="300" width="60" height="80" as="geometry" />
        </mxCell>
        <mxCell id="20m8SUaOAVCEQE0NKZoS-7" value="ScenesStore" style="shape=cylinder3;whiteSpace=wrap;html=1;boundedLbl=1;backgroundOutline=1;size=15;" vertex="1" parent="1">
          <mxGeometry x="130" y="470" width="60" height="80" as="geometry" />
        </mxCell>
        <mxCell id="20m8SUaOAVCEQE0NKZoS-8" value="IteratorStore" style="shape=cylinder3;whiteSpace=wrap;html=1;boundedLbl=1;backgroundOutline=1;size=15;" vertex="1" parent="1">
          <mxGeometry x="110" y="610" width="60" height="80" as="geometry" />
        </mxCell>
        <mxCell id="20m8SUaOAVCEQE0NKZoS-10" value="StatesStore" style="shape=cylinder3;whiteSpace=wrap;html=1;boundedLbl=1;backgroundOutline=1;size=15;" vertex="1" parent="1">
          <mxGeometry x="610" y="460" width="60" height="80" as="geometry" />
        </mxCell>
        <mxCell id="20m8SUaOAVCEQE0NKZoS-32" style="edgeStyle=orthogonalEdgeStyle;rounded=0;orthogonalLoop=1;jettySize=auto;html=1;exitX=0.5;exitY=1;exitDx=0;exitDy=0;entryX=0.5;entryY=0;entryDx=0;entryDy=0;" edge="1" parent="1" source="20m8SUaOAVCEQE0NKZoS-11" target="20m8SUaOAVCEQE0NKZoS-5">
          <mxGeometry relative="1" as="geometry" />
        </mxCell>
        <mxCell id="20m8SUaOAVCEQE0NKZoS-63" style="edgeStyle=orthogonalEdgeStyle;rounded=0;orthogonalLoop=1;jettySize=auto;html=1;entryX=1;entryY=0.25;entryDx=0;entryDy=0;" edge="1" parent="1" source="20m8SUaOAVCEQE0NKZoS-11" target="20m8SUaOAVCEQE0NKZoS-59">
          <mxGeometry relative="1" as="geometry" />
        </mxCell>
        <mxCell id="20m8SUaOAVCEQE0NKZoS-11" value="Какое состояние сцены в общем?" style="text;html=1;strokeColor=none;fillColor=none;align=center;verticalAlign=middle;whiteSpace=wrap;rounded=0;" vertex="1" parent="1">
          <mxGeometry x="460" y="-130" width="60" height="30" as="geometry" />
        </mxCell>
        <mxCell id="20m8SUaOAVCEQE0NKZoS-20" style="edgeStyle=orthogonalEdgeStyle;rounded=0;orthogonalLoop=1;jettySize=auto;html=1;exitX=0.5;exitY=1;exitDx=0;exitDy=0;entryX=0.25;entryY=0;entryDx=0;entryDy=0;" edge="1" parent="1" source="20m8SUaOAVCEQE0NKZoS-14" target="20m8SUaOAVCEQE0NKZoS-1">
          <mxGeometry relative="1" as="geometry" />
        </mxCell>
        <mxCell id="20m8SUaOAVCEQE0NKZoS-61" style="edgeStyle=orthogonalEdgeStyle;rounded=0;orthogonalLoop=1;jettySize=auto;html=1;exitX=0.5;exitY=0;exitDx=0;exitDy=0;entryX=0.669;entryY=1.006;entryDx=0;entryDy=0;entryPerimeter=0;" edge="1" parent="1" source="20m8SUaOAVCEQE0NKZoS-14" target="20m8SUaOAVCEQE0NKZoS-59">
          <mxGeometry relative="1" as="geometry" />
        </mxCell>
        <mxCell id="20m8SUaOAVCEQE0NKZoS-14" value="Отправляю ответ" style="text;html=1;strokeColor=none;fillColor=none;align=center;verticalAlign=middle;whiteSpace=wrap;rounded=0;" vertex="1" parent="1">
          <mxGeometry x="170" y="-120" width="60" height="30" as="geometry" />
        </mxCell>
        <mxCell id="20m8SUaOAVCEQE0NKZoS-34" style="edgeStyle=orthogonalEdgeStyle;rounded=0;orthogonalLoop=1;jettySize=auto;html=1;exitX=0.5;exitY=1;exitDx=0;exitDy=0;entryX=0.75;entryY=0;entryDx=0;entryDy=0;" edge="1" parent="1" source="20m8SUaOAVCEQE0NKZoS-33" target="20m8SUaOAVCEQE0NKZoS-4">
          <mxGeometry relative="1" as="geometry">
            <Array as="points">
              <mxPoint x="400" y="-90" />
              <mxPoint x="400" y="150" />
              <mxPoint x="470" y="150" />
              <mxPoint x="470" y="400" />
              <mxPoint x="410" y="400" />
            </Array>
          </mxGeometry>
        </mxCell>
        <mxCell id="20m8SUaOAVCEQE0NKZoS-62" style="edgeStyle=orthogonalEdgeStyle;rounded=0;orthogonalLoop=1;jettySize=auto;html=1;exitX=0.5;exitY=0;exitDx=0;exitDy=0;entryX=1;entryY=0.75;entryDx=0;entryDy=0;" edge="1" parent="1" source="20m8SUaOAVCEQE0NKZoS-33" target="20m8SUaOAVCEQE0NKZoS-59">
          <mxGeometry relative="1" as="geometry" />
        </mxCell>
        <mxCell id="20m8SUaOAVCEQE0NKZoS-33" value="Форма активна?" style="text;html=1;strokeColor=none;fillColor=none;align=center;verticalAlign=middle;whiteSpace=wrap;rounded=0;" vertex="1" parent="1">
          <mxGeometry x="280" y="-120" width="60" height="30" as="geometry" />
        </mxCell>
        <mxCell id="20m8SUaOAVCEQE0NKZoS-48" style="edgeStyle=orthogonalEdgeStyle;rounded=0;orthogonalLoop=1;jettySize=auto;html=1;exitX=0;exitY=1;exitDx=0;exitDy=0;entryX=0.5;entryY=0;entryDx=0;entryDy=0;entryPerimeter=0;" edge="1" parent="1" source="20m8SUaOAVCEQE0NKZoS-35" target="20m8SUaOAVCEQE0NKZoS-39">
          <mxGeometry relative="1" as="geometry">
            <Array as="points">
              <mxPoint x="-220" y="580" />
              <mxPoint x="-80" y="580" />
            </Array>
          </mxGeometry>
        </mxCell>
        <mxCell id="20m8SUaOAVCEQE0NKZoS-49" style="edgeStyle=orthogonalEdgeStyle;rounded=0;orthogonalLoop=1;jettySize=auto;html=1;exitX=0.5;exitY=1;exitDx=0;exitDy=0;" edge="1" parent="1" source="20m8SUaOAVCEQE0NKZoS-35" target="20m8SUaOAVCEQE0NKZoS-40">
          <mxGeometry relative="1" as="geometry" />
        </mxCell>
        <mxCell id="20m8SUaOAVCEQE0NKZoS-52" style="edgeStyle=orthogonalEdgeStyle;rounded=0;orthogonalLoop=1;jettySize=auto;html=1;exitX=0;exitY=0.75;exitDx=0;exitDy=0;entryX=0.5;entryY=0;entryDx=0;entryDy=0;entryPerimeter=0;" edge="1" parent="1" source="20m8SUaOAVCEQE0NKZoS-35" target="20m8SUaOAVCEQE0NKZoS-51">
          <mxGeometry relative="1" as="geometry" />
        </mxCell>
        <mxCell id="20m8SUaOAVCEQE0NKZoS-55" style="edgeStyle=orthogonalEdgeStyle;rounded=0;orthogonalLoop=1;jettySize=auto;html=1;exitX=0.25;exitY=1;exitDx=0;exitDy=0;entryX=0;entryY=0.5;entryDx=0;entryDy=0;entryPerimeter=0;" edge="1" parent="1" source="20m8SUaOAVCEQE0NKZoS-35" target="20m8SUaOAVCEQE0NKZoS-7">
          <mxGeometry relative="1" as="geometry" />
        </mxCell>
        <mxCell id="20m8SUaOAVCEQE0NKZoS-35" value="SceneLoaderService" style="whiteSpace=wrap;html=1;aspect=fixed;" vertex="1" parent="1">
          <mxGeometry x="-220" y="125" width="80" height="80" as="geometry" />
        </mxCell>
        <mxCell id="20m8SUaOAVCEQE0NKZoS-41" style="edgeStyle=orthogonalEdgeStyle;rounded=0;orthogonalLoop=1;jettySize=auto;html=1;exitX=1;exitY=0.25;exitDx=0;exitDy=0;" edge="1" parent="1" source="20m8SUaOAVCEQE0NKZoS-36" target="20m8SUaOAVCEQE0NKZoS-6">
          <mxGeometry relative="1" as="geometry" />
        </mxCell>
        <mxCell id="20m8SUaOAVCEQE0NKZoS-42" style="edgeStyle=orthogonalEdgeStyle;rounded=0;orthogonalLoop=1;jettySize=auto;html=1;exitX=0;exitY=0.25;exitDx=0;exitDy=0;entryX=1;entryY=0;entryDx=0;entryDy=27.5;entryPerimeter=0;" edge="1" parent="1" source="20m8SUaOAVCEQE0NKZoS-36" target="20m8SUaOAVCEQE0NKZoS-40">
          <mxGeometry relative="1" as="geometry" />
        </mxCell>
        <mxCell id="20m8SUaOAVCEQE0NKZoS-36" value="ResultsService" style="whiteSpace=wrap;html=1;aspect=fixed;" vertex="1" parent="1">
          <mxGeometry x="30" y="280" width="80" height="80" as="geometry" />
        </mxCell>
        <mxCell id="20m8SUaOAVCEQE0NKZoS-53" style="edgeStyle=orthogonalEdgeStyle;rounded=0;orthogonalLoop=1;jettySize=auto;html=1;exitX=0.75;exitY=0;exitDx=0;exitDy=0;entryX=0.5;entryY=1;entryDx=0;entryDy=0;entryPerimeter=0;" edge="1" parent="1" source="20m8SUaOAVCEQE0NKZoS-37" target="20m8SUaOAVCEQE0NKZoS-51">
          <mxGeometry relative="1" as="geometry" />
        </mxCell>
        <mxCell id="20m8SUaOAVCEQE0NKZoS-37" value="StyleService" style="whiteSpace=wrap;html=1;aspect=fixed;" vertex="1" parent="1">
          <mxGeometry x="-330" y="410" width="80" height="80" as="geometry" />
        </mxCell>
        <mxCell id="20m8SUaOAVCEQE0NKZoS-38" value="SessionStore" style="shape=cylinder3;whiteSpace=wrap;html=1;boundedLbl=1;backgroundOutline=1;size=15;" vertex="1" parent="1">
          <mxGeometry x="-30" y="620" width="60" height="80" as="geometry" />
        </mxCell>
        <mxCell id="20m8SUaOAVCEQE0NKZoS-39" value="SettingsStore" style="shape=cylinder3;whiteSpace=wrap;html=1;boundedLbl=1;backgroundOutline=1;size=15;" vertex="1" parent="1">
          <mxGeometry x="-110" y="620" width="60" height="80" as="geometry" />
        </mxCell>
        <mxCell id="20m8SUaOAVCEQE0NKZoS-40" value="VariablesStore" style="shape=cylinder3;whiteSpace=wrap;html=1;boundedLbl=1;backgroundOutline=1;size=15;" vertex="1" parent="1">
          <mxGeometry x="-160" y="290" width="60" height="80" as="geometry" />
        </mxCell>
        <mxCell id="20m8SUaOAVCEQE0NKZoS-44" style="edgeStyle=orthogonalEdgeStyle;rounded=0;orthogonalLoop=1;jettySize=auto;html=1;exitX=0.5;exitY=1;exitDx=0;exitDy=0;entryX=0.5;entryY=0;entryDx=0;entryDy=0;" edge="1" parent="1" source="20m8SUaOAVCEQE0NKZoS-43" target="20m8SUaOAVCEQE0NKZoS-36">
          <mxGeometry relative="1" as="geometry" />
        </mxCell>
        <mxCell id="20m8SUaOAVCEQE0NKZoS-60" style="edgeStyle=orthogonalEdgeStyle;rounded=0;orthogonalLoop=1;jettySize=auto;html=1;exitX=0.5;exitY=0;exitDx=0;exitDy=0;" edge="1" parent="1" source="20m8SUaOAVCEQE0NKZoS-43" target="20m8SUaOAVCEQE0NKZoS-59">
          <mxGeometry relative="1" as="geometry" />
        </mxCell>
        <mxCell id="20m8SUaOAVCEQE0NKZoS-43" value="Каковы мои результаты?" style="text;html=1;strokeColor=none;fillColor=none;align=center;verticalAlign=middle;whiteSpace=wrap;rounded=0;" vertex="1" parent="1">
          <mxGeometry x="90" y="-120" width="60" height="30" as="geometry" />
        </mxCell>
        <mxCell id="20m8SUaOAVCEQE0NKZoS-46" style="edgeStyle=orthogonalEdgeStyle;rounded=0;orthogonalLoop=1;jettySize=auto;html=1;exitX=0;exitY=0.5;exitDx=0;exitDy=0;entryX=1;entryY=0.25;entryDx=0;entryDy=0;" edge="1" parent="1" source="20m8SUaOAVCEQE0NKZoS-45" target="20m8SUaOAVCEQE0NKZoS-35">
          <mxGeometry relative="1" as="geometry" />
        </mxCell>
        <mxCell id="20m8SUaOAVCEQE0NKZoS-45" value="Загрузи сцену" style="text;html=1;strokeColor=none;fillColor=none;align=center;verticalAlign=middle;whiteSpace=wrap;rounded=0;" vertex="1" parent="1">
          <mxGeometry x="-120" y="-170" width="60" height="30" as="geometry" />
        </mxCell>
        <mxCell id="20m8SUaOAVCEQE0NKZoS-51" value="StyleStore" style="shape=cylinder3;whiteSpace=wrap;html=1;boundedLbl=1;backgroundOutline=1;size=15;" vertex="1" parent="1">
          <mxGeometry x="-300" y="270" width="60" height="80" as="geometry" />
        </mxCell>
        <mxCell id="20m8SUaOAVCEQE0NKZoS-58" value="Сервисы" style="rounded=0;whiteSpace=wrap;html=1;" vertex="1" parent="1">
          <mxGeometry x="-210" y="-20" width="820" height="60" as="geometry" />
        </mxCell>
        <mxCell id="20m8SUaOAVCEQE0NKZoS-67" style="edgeStyle=orthogonalEdgeStyle;rounded=0;orthogonalLoop=1;jettySize=auto;html=1;exitX=0.25;exitY=0;exitDx=0;exitDy=0;" edge="1" parent="1" source="20m8SUaOAVCEQE0NKZoS-59" target="20m8SUaOAVCEQE0NKZoS-64">
          <mxGeometry relative="1" as="geometry" />
        </mxCell>
        <mxCell id="20m8SUaOAVCEQE0NKZoS-68" style="edgeStyle=orthogonalEdgeStyle;rounded=0;orthogonalLoop=1;jettySize=auto;html=1;exitX=0.5;exitY=0;exitDx=0;exitDy=0;" edge="1" parent="1" source="20m8SUaOAVCEQE0NKZoS-59" target="20m8SUaOAVCEQE0NKZoS-65">
          <mxGeometry relative="1" as="geometry" />
        </mxCell>
        <mxCell id="20m8SUaOAVCEQE0NKZoS-69" style="edgeStyle=orthogonalEdgeStyle;rounded=0;orthogonalLoop=1;jettySize=auto;html=1;exitX=0.75;exitY=0;exitDx=0;exitDy=0;" edge="1" parent="1" source="20m8SUaOAVCEQE0NKZoS-59" target="20m8SUaOAVCEQE0NKZoS-66">
          <mxGeometry relative="1" as="geometry" />
        </mxCell>
        <mxCell id="20m8SUaOAVCEQE0NKZoS-59" value="CurrentSceneService" style="whiteSpace=wrap;html=1;aspect=fixed;" vertex="1" parent="1">
          <mxGeometry x="120" y="-300" width="80" height="80" as="geometry" />
        </mxCell>
        <mxCell id="20m8SUaOAVCEQE0NKZoS-64" value="CS_config" style="whiteSpace=wrap;html=1;aspect=fixed;" vertex="1" parent="1">
          <mxGeometry x="30" y="-440" width="80" height="80" as="geometry" />
        </mxCell>
        <mxCell id="20m8SUaOAVCEQE0NKZoS-65" value="CS_answers" style="whiteSpace=wrap;html=1;aspect=fixed;" vertex="1" parent="1">
          <mxGeometry x="130" y="-440" width="80" height="80" as="geometry" />
        </mxCell>
        <mxCell id="20m8SUaOAVCEQE0NKZoS-66" value="CS_state" style="whiteSpace=wrap;html=1;aspect=fixed;" vertex="1" parent="1">
          <mxGeometry x="230" y="-440" width="80" height="80" as="geometry" />
        </mxCell>
      </root>
    </mxGraphModel>
  </diagram>
</mxfile>
